<svg xmlns="http://www.w3.org/2000/svg" width="512" height="512" viewBox="0 0 512 512"><rect width="512" height="512" rx="78" fill="#000"/><rect x="0.5" y="0.5" width="511" height="511" rx="77.5" fill="none" stroke="#1a1a1a" stroke-width="1"/><path fill="#fff" d="M 450.0 450.5 L 274.0 389.5 L 182.0 286.5 L 160.5 391.0 L 169.5 401.0 L 74.0 444.5 L 131.5 142.0 L 131.5 138.0 L 107.5 118.0 L 229.5 82.0 L 193.0 234.5 L 316.0 114.5 L 456.0 57.5 L 424.5 101.0 L 422.5 130.0 L 410.0 162.5 L 405.5 139.0 L 400.0 129.5 L 387.5 139.0 L 384.5 161.0 L 375.0 182.5 L 368.0 151.5 L 351.5 165.0 L 349.5 184.0 L 341.0 204.5 L 333.0 176.5 L 244.5 251.0 L 309.0 330.5 L 329.5 304.0 L 330.5 324.0 L 326.5 345.0 L 339.0 353.5 L 342.5 354.0 L 359.0 323.5 L 361.5 333.0 L 359.5 366.0 L 376.0 378.5 L 391.0 347.5 L 396.5 368.0 L 396.5 395.0 L 450.0 450.5 Z"/></svg>